<svg width="40" height="40" viewBox="0 0 40 40" fill="none" xmlns="http://www.w3.org/2000/svg">
<path d="M32.5 9.5V10.5H18.5V9.5H32.5Z" fill="#FAA700"/>
<path d="M36 10C36 11.1046 35.1046 12 34 12C32.8954 12 32 11.1046 32 10C32 8.89543 32.8954 8 34 8C35.1046 8 36 8.89543 36 10Z" fill="#FAA700"/>
<path d="M27.5 14.5V15.5H18.5V14.5H27.5Z" fill="#1A3495"/>
<path d="M30 15C30 15.8284 29.3284 16.5 28.5 16.5C27.6716 16.5 27 15.8284 27 15C27 14.1716 27.6716 13.5 28.5 13.5C29.3284 13.5 30 14.1716 30 15Z" fill="#1A3495"/>
<path d="M23.5 19.5V20.5H18.5V19.5H23.5Z" fill="#1A3495"/>
<path d="M26 20C26 20.8284 25.3284 21.5 24.5 21.5C23.6716 21.5 23 20.8284 23 20C23 19.1716 23.6716 18.5 24.5 18.5C25.3284 18.5 26 19.1716 26 20Z" fill="#1A3495"/>
<path d="M13.5 25.5V24.5L18.5 24.5V25.5L13.5 25.5Z" fill="#4361D0"/>
<path d="M11 25C11 25.8284 11.6716 26.5 12.5 26.5C13.3284 26.5 14 25.8284 14 25C14 24.1716 13.3284 23.5 12.5 23.5C11.6716 23.5 11 24.1716 11 25Z" fill="#4361D0"/>
<path d="M6.5 29.5V30.5H18.5V29.5H6.5Z" fill="#1A3495"/>
<path d="M4 30C4 30.8284 4.67157 31.5 5.5 31.5C6.32843 31.5 7 30.8284 7 30C7 29.1716 6.32843 28.5 5.5 28.5C4.67157 28.5 4 29.1716 4 30Z" fill="#1A3495"/>
<path d="M18.5 5V35" stroke="#414558" stroke-width="0.5" stroke-linecap="square" stroke-linejoin="round"/>
</svg>
