<svg width="40" height="40" viewBox="0 0 40 40" fill="none" xmlns="http://www.w3.org/2000/svg">
<g clip-path="url(#clip0_1178_30225)">
<path fill-rule="evenodd" clip-rule="evenodd" d="M11.9066 22.9777H28.2249C27.341 22.9777 26.7406 21.0246 26.0233 18.6918C24.9597 15.2323 22.9517 10.9375 20.0694 10.9375C17.187 10.9375 15.6188 15.2323 14.3555 18.6918C13.5036 21.0246 12.7905 22.9777 11.9066 22.9777Z" fill="#EFDBA4"/>
<path d="M11.9066 22.9777H32.4635M11.9066 22.9777H7.7085M11.9066 22.9777H28.2249C27.341 22.9777 26.7406 21.0246 26.0233 18.6918C24.9597 15.2323 22.9517 10.9375 20.0694 10.9375C17.187 10.9375 15.6188 15.2323 14.3555 18.6918C13.5036 21.0246 12.7905 22.9777 11.9066 22.9777Z" stroke="#FFB41F" stroke-width="0.6875"/>
<path d="M28.2251 24.3527V21.6027C28.5617 21.6027 28.7034 21.7995 28.644 21.7316C28.5845 21.6633 28.4703 21.4904 28.3159 21.1466C28.0086 20.4623 27.7056 19.4849 27.3374 18.2872C26.7881 16.5006 25.9739 14.4212 24.8755 12.7589C23.8199 11.1615 22.2386 9.56285 20.0698 9.56262C17.8594 9.56262 16.3892 11.2157 15.4282 12.8058C14.4355 14.4484 13.6836 16.523 13.064 18.2198C12.6274 19.4155 12.2663 20.3979 11.9165 21.088C11.7409 21.4345 11.6106 21.6188 11.5356 21.6993C11.4555 21.7852 11.5841 21.6027 11.9067 21.6027V24.3527H28.2251Z" stroke="#F2F2F2" stroke-width="2.75"/>
<path fill-rule="evenodd" clip-rule="evenodd" d="M11.9066 22.9777H28.2249C27.341 22.9777 26.7406 21.0246 26.0233 18.6918C24.9597 15.2323 22.9517 10.9375 20.0694 10.9375C17.187 10.9375 15.6188 15.2323 14.3555 18.6918C13.5036 21.0246 12.7905 22.9777 11.9066 22.9777Z" fill="#FFE5B2"/>
<path d="M11.9066 22.9777H32.4635M11.9066 22.9777H7.7085M11.9066 22.9777H28.2249C27.341 22.9777 26.7406 21.0246 26.0233 18.6918C24.9597 15.2323 22.9517 10.9375 20.0694 10.9375C17.187 10.9375 15.6188 15.2323 14.3555 18.6918C13.5036 21.0246 12.7905 22.9777 11.9066 22.9777Z" stroke="#FAA700" stroke-width="1.25"/>
<g style="mix-blend-mode:multiply" opacity="0.65">
<path d="M11.7275 10.9377C13.9221 10.9377 15.0643 22.9779 19.8903 22.9779C24.7163 22.9779 25.1638 10.9377 27.3583 10.9377C29.5529 10.9377 30.4841 22.9779 34.8505 22.9779H19.8903H4.93009C7.8444 22.9779 9.53297 10.9377 11.7275 10.9377Z" fill="#4361D0"/>
</g>
<path d="M27.3579 10.0002C28.0924 10.0002 28.5909 10.5008 28.8843 10.8967C29.1991 11.3214 29.4677 11.8789 29.7075 12.4621C30.1834 13.6195 30.6694 15.2025 31.1753 16.6486C31.7003 18.1496 32.2639 19.5599 32.9321 20.5851C33.6144 21.6319 34.2458 22.04 34.8501 22.0402V23.9152H4.93018V22.0402C4.94975 22.0402 5.07039 22.0327 5.30615 21.7971C5.5412 21.562 5.80421 21.1842 6.08643 20.6555C6.65001 19.5995 7.18064 18.1611 7.71436 16.6467C8.23503 15.1692 8.76116 13.6087 9.29541 12.4318C9.56179 11.8451 9.85693 11.2912 10.1909 10.8713C10.4992 10.4837 11.0078 10.0004 11.7271 10.0002C12.4568 10.0002 12.9584 10.4956 13.2563 10.8869C13.5772 11.3083 13.8568 11.8628 14.1099 12.4445C14.6079 13.5892 15.143 15.1873 15.6968 16.6203C16.2749 18.1164 16.9028 19.5231 17.646 20.5461C18.3932 21.5746 19.125 22.0402 19.8901 22.0402C20.6418 22.0402 21.3271 21.5896 22.0054 20.5754C22.6838 19.5608 23.2283 18.1616 23.7202 16.6652C24.1899 15.2362 24.6345 13.6332 25.0669 12.4875C25.2866 11.9053 25.5364 11.3443 25.8384 10.9152C26.1217 10.5126 26.6133 10.0004 27.3579 10.0002Z" stroke="#F2F2F2" stroke-width="1.875"/>
<path d="M4.93009 22.9778C7.8444 22.9778 9.53297 10.9376 11.7275 10.9376C13.9221 10.9376 15.0643 22.9778 19.8903 22.9778M4.93009 22.9778H19.8903M4.93009 22.9778H3.125M19.8903 22.9778C24.7163 22.9778 25.1638 10.9376 27.3583 10.9376C29.5529 10.9376 30.4841 22.9778 34.8505 22.9778M19.8903 22.9778H34.8505M34.8505 22.9778H36.875" stroke="#1A3495" stroke-width="1.25"/>
<rect x="7.5" y="25.625" width="6.25" height="6.25" fill="#1A3495"/>
<rect x="13.75" y="25.625" width="6.25" height="6.25" fill="#1A3495"/>
<rect x="20" y="25.625" width="6.25" height="6.25" fill="#1A3495"/>
<rect x="26.25" y="25.625" width="6.25" height="6.25" fill="#1A3495"/>
<circle cx="16.8752" cy="28.7501" r="1.04167" fill="white"/>
<circle cx="23.1252" cy="28.7501" r="1.04167" fill="white"/>
</g>
<defs>
<clipPath id="clip0_1178_30225">
<rect width="40" height="40" rx="5" fill="white"/>
</clipPath>
</defs>
</svg>
