<svg width="40" height="40" viewBox="0 0 40 40" fill="none" xmlns="http://www.w3.org/2000/svg">
<path d="M20.7711 28.2292L20.3545 28.875C18.6322 28.0139 17.2642 26.7708 16.2503 25.1458C15.2364 23.5347 14.7295 21.5833 14.7295 19.2917C14.7295 17.0139 15.2364 15.0764 16.2503 13.4792C17.2642 11.8681 18.6322 10.6389 20.3545 9.79167L20.7503 10.3958C19.3197 11.4097 18.292 12.6319 17.667 14.0625C17.0558 15.4792 16.7503 17.2222 16.7503 19.2917C16.7503 21.3889 17.0628 23.1528 17.6878 24.5833C18.3128 26.0139 19.3406 27.2292 20.7711 28.2292ZM32.199 28.875L31.7823 28.2292C33.2268 27.2292 34.2546 26.0139 34.8657 24.5833C35.4907 23.1528 35.8032 21.3889 35.8032 19.2917C35.8032 17.2222 35.4976 15.4792 34.8865 14.0625C34.2754 12.6319 33.2476 11.4097 31.8032 10.3958L32.199 9.79167C33.9212 10.6389 35.2893 11.8681 36.3032 13.4792C37.3171 15.0764 37.824 17.0139 37.824 19.2917C37.824 21.5833 37.3171 23.5347 36.3032 25.1458C35.2893 26.7708 33.9212 28.0139 32.199 28.875Z" fill="#1A3495"/>
<path d="M28.0691 25.2292C27.4858 25.2292 27.0414 25.0625 26.7358 24.7292C26.4441 24.3819 26.2219 23.8681 26.0691 23.1875L25.4858 20.7708L25.2983 20.4375L24.6941 18.2917C24.5275 17.6944 24.3539 17.25 24.1733 16.9583C24.0066 16.6528 23.7914 16.4444 23.5275 16.3333C23.2636 16.2222 22.9164 16.1736 22.4858 16.1875C22.3608 16.1875 22.2358 16.1944 22.1108 16.2083C21.9858 16.2222 21.9025 16.2361 21.8608 16.25V15.4375L24.6941 15.1042H25.9025C26.1247 15.3958 26.3122 15.7292 26.465 16.1042C26.6177 16.4792 26.7636 16.9514 26.9025 17.5208L27.1316 18.8333L27.3608 19.3125L27.9025 21.0833C28.1525 21.9028 28.3677 22.4861 28.5483 22.8333C28.7427 23.1806 28.965 23.3542 29.215 23.3542C29.4789 23.3542 29.7219 23.25 29.9441 23.0417C30.1664 22.8333 30.4025 22.5556 30.6525 22.2083L31.215 22.6042C31.0761 22.8264 30.9025 23.0903 30.6941 23.3958C30.4858 23.6875 30.2497 23.9722 29.9858 24.25C29.7219 24.5278 29.4302 24.7639 29.1108 24.9583C28.7914 25.1389 28.4441 25.2292 28.0691 25.2292ZM21.7358 25.2083C21.2775 25.2083 20.9441 25.0903 20.7358 24.8542C20.5275 24.6181 20.4233 24.3542 20.4233 24.0625C20.4233 23.7986 20.5136 23.5764 20.6941 23.3958C20.8608 23.2014 21.0761 23.1042 21.34 23.1042C21.5622 23.1042 21.7914 23.1458 22.0275 23.2292C22.2775 23.3125 22.4858 23.3542 22.6525 23.3542C22.7497 23.3542 22.8469 23.3333 22.9441 23.2917C23.0552 23.25 23.1802 23.1597 23.3191 23.0208C23.458 22.8681 23.6177 22.6458 23.7983 22.3542L25.34 19.8958L25.8191 21.125H25.4233L24.2775 23.2292C23.9719 23.7847 23.6316 24.2569 23.2566 24.6458C22.8955 25.0208 22.3886 25.2083 21.7358 25.2083ZM28.6316 17.6667L27.2983 19.7917L26.84 18.5833H27.215L28.1108 16.9792C28.333 16.5903 28.5622 16.25 28.7983 15.9583C29.0483 15.6528 29.333 15.4097 29.6525 15.2292C29.9719 15.0486 30.3539 14.9583 30.7983 14.9583C31.2427 14.9583 31.5552 15.0625 31.7358 15.2708C31.9164 15.4653 32.0066 15.7292 32.0066 16.0625C32.0066 16.3403 31.9094 16.5903 31.715 16.8125C31.5205 17.0208 31.2636 17.125 30.9441 17.125C30.6941 17.125 30.4858 17.0764 30.3191 16.9792C30.1525 16.8681 29.965 16.8125 29.7566 16.8125C29.5205 16.8125 29.3191 16.8819 29.1525 17.0208C28.9858 17.1597 28.8122 17.375 28.6316 17.6667Z" fill="#FAA700"/>
<path d="M3.94889 29.75C3.21278 29.75 2.6225 29.5972 2.17806 29.2917C1.71973 28.9861 1.49056 28.5417 1.49056 27.9583C1.49056 27.6528 1.58084 27.3819 1.76139 27.1458C1.94195 26.9097 2.19889 26.7917 2.53223 26.7917C2.90723 26.7917 3.17806 26.8958 3.34473 27.1042C3.4975 27.3125 3.60167 27.5486 3.65723 27.8125C3.71278 28.0764 3.78223 28.3125 3.86556 28.5208C3.935 28.7292 4.06695 28.8333 4.26139 28.8333C4.48362 28.8333 4.67806 28.7083 4.84473 28.4583C5.02528 28.2083 5.17806 27.8889 5.30306 27.5C5.44195 27.1111 5.56 26.7014 5.65723 26.2708C5.75445 25.8403 5.83084 25.4306 5.88639 25.0417C5.95584 24.6528 6.01139 24.3472 6.05306 24.125L7.34473 15.9375C7.45584 15.1736 7.58778 14.4653 7.74056 13.8125C7.89334 13.1458 8.10167 12.5833 8.36556 12.125C8.56 11.7778 8.80306 11.4583 9.09473 11.1667C9.38639 10.875 9.76834 10.6389 10.2406 10.4583C10.7128 10.2639 11.31 10.1667 12.0322 10.1667C12.5044 10.1667 12.9281 10.2361 13.3031 10.375C13.6781 10.5 13.9767 10.6944 14.1989 10.9583C14.4211 11.2222 14.5322 11.5625 14.5322 11.9792C14.5322 12.3264 14.4211 12.5972 14.1989 12.7917C13.9767 12.9722 13.7128 13.0625 13.4072 13.0625C13.06 13.0625 12.81 12.9583 12.6572 12.75C12.5183 12.5278 12.4211 12.2917 12.3656 12.0417C12.31 11.75 12.2475 11.4931 12.1781 11.2708C12.1086 11.0486 11.9628 10.9375 11.7406 10.9375C11.3517 10.9375 11.0253 11.1875 10.7614 11.6875C10.4975 12.1875 10.2961 12.875 10.1572 13.75L8.67806 23.2917C8.60862 23.7083 8.50445 24.1944 8.36556 24.75C8.24056 25.3056 8.06695 25.875 7.84473 26.4583C7.6225 27.0417 7.33778 27.5833 6.99056 28.0833C6.64334 28.5833 6.21973 28.9861 5.71973 29.2917C5.21973 29.5972 4.62945 29.75 3.94889 29.75ZM11.8656 16.3125H5.49056L5.63639 15.25H12.0114L11.8656 16.3125Z" fill="#1A3495"/>
</svg>
