<svg width="40" height="40" viewBox="0 0 40 40" fill="none" xmlns="http://www.w3.org/2000/svg">
<g clip-path="url(#clip0_1178_30060)">
<path d="M5.625 6.71875H34.375C35.4968 6.71875 36.4062 7.62817 36.4062 8.75V31.25C36.4062 32.3718 35.4968 33.2812 34.375 33.2812H5.625C4.50317 33.2812 3.59375 32.3718 3.59375 31.25V8.75C3.59375 7.62817 4.50317 6.71875 5.625 6.71875Z" stroke="#7283C7" stroke-width="0.9375"/>
<path d="M3.4375 10.9375H36.5625" stroke="#7283C7" stroke-width="0.9375"/>
<circle cx="6.25" cy="8.75" r="0.46875" fill="#7283C7" stroke="#7283C7" stroke-width="0.3125"/>
<circle cx="8.125" cy="8.75" r="0.46875" fill="#7283C7" stroke="#7283C7" stroke-width="0.3125"/>
<circle cx="10" cy="8.75" r="0.46875" fill="#7283C7" stroke="#7283C7" stroke-width="0.3125"/>
<path d="M22.6212 26.1588C22.6212 26.1072 22.663 26.0655 22.7145 26.0655H23.2181C23.2696 26.0655 23.3114 26.1072 23.3114 26.1588V26.4106H22.6212V26.1588Z" fill="#C1D1FB"/>
<path d="M23.3115 26.1586C23.3115 26.1071 23.3533 26.0654 23.4048 26.0654H23.9084C23.9599 26.0654 24.0017 26.1071 24.0017 26.1586V26.4104H23.3115V26.1586Z" fill="#C1D1FB"/>
<path d="M24.0015 26.1588C24.0015 26.1072 24.0432 26.0655 24.0947 26.0655H24.5983C24.6498 26.0655 24.6916 26.1072 24.6916 26.1588V26.4106H24.0015V26.1588Z" fill="#C1D1FB"/>
<path d="M24.6915 26.1588C24.6915 26.1072 24.7333 26.0655 24.7848 26.0655H25.2884C25.3399 26.0655 25.3817 26.1072 25.3817 26.1588V26.4106H24.6915V26.1588Z" fill="#C1D1FB"/>
<path d="M25.3818 25.1234C25.3818 25.0719 25.4236 25.0302 25.4751 25.0302H25.9787C26.0302 25.0302 26.072 25.0719 26.072 25.1234V26.4104H25.3818V25.1234Z" fill="#C1D1FB"/>
<path d="M26.0718 21.6729C26.0718 21.6213 26.1135 21.5796 26.165 21.5796H26.6687C26.7202 21.5796 26.7619 21.6213 26.7619 21.6729V26.4106H26.0718V21.6729Z" fill="#C1D1FB"/>
<path d="M26.7622 25.1234C26.7622 25.0719 26.804 25.0302 26.8555 25.0302H27.3591C27.4106 25.0302 27.4523 25.0719 27.4523 25.1234V26.4104H26.7622V25.1234Z" fill="#C1D1FB"/>
<path d="M27.4521 25.8136C27.4521 25.7621 27.4939 25.7203 27.5454 25.7203H28.049C28.1005 25.7203 28.1423 25.7621 28.1423 25.8136V26.4105H27.4521V25.8136Z" fill="#C1D1FB"/>
<path d="M28.1425 26.1588C28.1425 26.1072 28.1842 26.0655 28.2357 26.0655H28.7393C28.7908 26.0655 28.8326 26.1072 28.8326 26.1588V26.4106H28.1425V26.1588Z" fill="#C1D1FB"/>
<path d="M28.8325 26.1588C28.8325 26.1072 28.8743 26.0655 28.9258 26.0655H29.4294C29.4809 26.0655 29.5227 26.1072 29.5227 26.1588V26.4106H28.8325V26.1588Z" fill="#C1D1FB"/>
<path d="M29.5227 25.8135C29.5227 25.762 29.5645 25.7203 29.616 25.7203H30.1196C30.1711 25.7203 30.2128 25.762 30.2128 25.8135V26.4104H29.5227V25.8135Z" fill="#C1D1FB"/>
<path d="M30.2128 24.4335C30.2128 24.382 30.2545 24.3402 30.306 24.3402H30.8096C30.8612 24.3402 30.9029 24.382 30.9029 24.4335V26.4106H30.2128V24.4335Z" fill="#C1D1FB"/>
<path d="M30.9028 25.8136C30.9028 25.7621 30.9446 25.7203 30.9961 25.7203H31.4997C31.5512 25.7203 31.593 25.7621 31.593 25.8136V26.4105H30.9028V25.8136Z" fill="#C1D1FB"/>
<path d="M31.593 26.1588C31.593 26.1072 31.6348 26.0655 31.6863 26.0655H32.1899C32.2414 26.0655 32.2832 26.1072 32.2832 26.1588V26.4106H31.593V26.1588Z" fill="#C1D1FB"/>
<path d="M32.2831 25.4686C32.2831 25.4171 32.3248 25.3754 32.3763 25.3754H32.88C32.9315 25.3754 32.9732 25.4171 32.9732 25.4686V26.4106H32.2831V25.4686Z" fill="#C1D1FB"/>
<path d="M32.9734 26.1588C32.9734 26.1072 33.0151 26.0655 33.0667 26.0655H33.5703C33.6218 26.0655 33.6635 26.1072 33.6635 26.1588V26.4106H32.9734V26.1588Z" fill="#C1D1FB"/>
<path d="M33.6633 26.1588C33.6633 26.1072 33.7051 26.0655 33.7566 26.0655H34.2602C34.3117 26.0655 34.3535 26.1072 34.3535 26.1588V26.4106H33.6633V26.1588Z" fill="#C1D1FB"/>
<path d="M22.6213 18.3248C22.6213 18.2733 22.6631 18.2315 22.7146 18.2315H23.2182C23.2697 18.2315 23.3115 18.2733 23.3115 18.3248V18.5766H22.6213V18.3248Z" fill="#C1D1FB"/>
<path d="M23.3052 18.3248C23.3052 18.2733 23.3469 18.2315 23.3984 18.2315H23.9021C23.9536 18.2315 23.9953 18.2733 23.9953 18.3248V18.5766H23.3052V18.3248Z" fill="#C1D1FB"/>
<path d="M23.9891 18.3248C23.9891 18.2733 24.0309 18.2315 24.0824 18.2315H24.586C24.6375 18.2315 24.6793 18.2733 24.6793 18.3248V18.5766H23.9891V18.3248Z" fill="#C1D1FB"/>
<path d="M24.6731 16.2543C24.6731 16.2028 24.7149 16.161 24.7664 16.161H25.27C25.3215 16.161 25.3632 16.2028 25.3632 16.2543V18.5765H24.6731V16.2543Z" fill="#C1D1FB"/>
<path d="M25.3569 14.874C25.3569 14.8225 25.3987 14.7808 25.4502 14.7808H25.9538C26.0053 14.7808 26.0471 14.8225 26.0471 14.874V18.5765H25.3569V14.874Z" fill="#C1D1FB"/>
<path d="M26.0408 13.8389C26.0408 13.7874 26.0825 13.7456 26.134 13.7456H26.6376C26.6892 13.7456 26.7309 13.7874 26.7309 13.8389V18.5766H26.0408V13.8389Z" fill="#C1D1FB"/>
<path d="M26.7247 17.2894C26.7247 17.2379 26.7665 17.1962 26.818 17.1962H27.3216C27.3731 17.1962 27.4149 17.2379 27.4149 17.2894V18.5764H26.7247V17.2894Z" fill="#C1D1FB"/>
<path d="M27.4087 17.9796C27.4087 17.9281 27.4504 17.8864 27.502 17.8864H28.0056C28.0571 17.8864 28.0988 17.9281 28.0988 17.9796V18.5765H27.4087V17.9796Z" fill="#C1D1FB"/>
<path d="M28.0925 18.3248C28.0925 18.2733 28.1343 18.2315 28.1858 18.2315H28.6894C28.7409 18.2315 28.7827 18.2733 28.7827 18.3248V18.5766H28.0925V18.3248Z" fill="#C1D1FB"/>
<path d="M28.7764 18.3248C28.7764 18.2733 28.8181 18.2315 28.8696 18.2315H29.3732C29.4248 18.2315 29.4665 18.2733 29.4665 18.3248V18.5766H28.7764V18.3248Z" fill="#C1D1FB"/>
<path d="M29.4603 18.3248C29.4603 18.2733 29.5021 18.2315 29.5536 18.2315H30.0572C30.1087 18.2315 30.1505 18.2733 30.1505 18.3248V18.5766H29.4603V18.3248Z" fill="#C1D1FB"/>
<path d="M30.1443 17.9796C30.1443 17.9281 30.186 17.8864 30.2375 17.8864H30.7412C30.7927 17.8864 30.8344 17.9281 30.8344 17.9796V18.5765H30.1443V17.9796Z" fill="#C1D1FB"/>
<path d="M30.8281 17.2894C30.8281 17.2379 30.8699 17.1962 30.9214 17.1962H31.425C31.4765 17.1962 31.5183 17.2379 31.5183 17.2894V18.5764H30.8281V17.2894Z" fill="#C1D1FB"/>
<path d="M31.512 17.9796C31.512 17.9281 31.5537 17.8864 31.6052 17.8864H32.1088C32.1603 17.8864 32.2021 17.9281 32.2021 17.9796V18.5765H31.512V17.9796Z" fill="#C1D1FB"/>
<path d="M32.1959 18.3248C32.1959 18.2733 32.2377 18.2315 32.2892 18.2315H32.7928C32.8443 18.2315 32.8861 18.2733 32.8861 18.3248V18.5766H32.1959V18.3248Z" fill="#C1D1FB"/>
<path d="M32.8799 18.3248C32.8799 18.2733 32.9216 18.2315 32.9731 18.2315H33.4768C33.5283 18.2315 33.57 18.2733 33.57 18.3248V18.5766H32.8799V18.3248Z" fill="#C1D1FB"/>
<path d="M33.5637 18.3248C33.5637 18.2733 33.6055 18.2315 33.657 18.2315H34.1606C34.2121 18.2315 34.2539 18.2733 34.2539 18.3248V18.5766H33.5637V18.3248Z" fill="#C1D1FB"/>
<path d="M34.2476 18.3248C34.2476 18.2733 34.2893 18.2315 34.3408 18.2315H34.8444C34.8959 18.2315 34.9377 18.2733 34.9377 18.3248V18.5766H34.2476V18.3248Z" fill="#C1D1FB"/>
<mask id="mask0_1178_30060" style="mask-type:alpha" maskUnits="userSpaceOnUse" x="6" y="14" width="15" height="16">
<circle cx="13.7152" cy="21.8845" r="7.1875" fill="#D9D9D9"/>
</mask>
<g mask="url(#mask0_1178_30060)">
<path opacity="0.8" d="M13.7151 14.6969C17.6846 14.6969 20.9026 17.9149 20.9026 21.8844C20.9026 25.8539 17.6846 29.0719 13.7151 29.0719C9.74556 29.0719 6.52759 25.8539 6.52759 21.8844C6.52759 17.9149 9.74556 14.6969 13.7151 14.6969Z" fill="#CCDAFF"/>
<path d="M14.7567 16.8837C14.9983 16.8837 15.1942 17.0796 15.1942 17.3212V21.1444H16.1083C16.3498 21.1446 16.5458 21.3404 16.5458 21.5819V23.1512H17.4589C17.7005 23.1512 17.8964 23.3471 17.8964 23.5887V25.2909H20.0878C20.3293 25.2909 20.5252 25.4869 20.5253 25.7284V26.8944H7.18738V25.7284C7.18741 25.4868 7.38327 25.2909 7.62488 25.2909H10.5155V24.1581C10.5155 23.9165 10.7114 23.7206 10.953 23.7206H11.8661V20.0009C11.8661 19.7594 12.0622 19.5635 12.3036 19.5634H13.2177V17.3212C13.2177 17.0796 13.4136 16.8837 13.6552 16.8837H14.7567Z" fill="#FAA700" stroke="#F2F2F2" stroke-width="0.625"/>
</g>
<path d="M13.7148 12.5444C18.8731 12.5444 23.0546 16.726 23.0547 21.8843C23.0547 27.0427 18.8732 31.2241 13.7148 31.2241C8.55657 31.224 4.375 27.0426 4.375 21.8843C4.37513 16.7261 8.55665 12.5446 13.7148 12.5444ZM13.7148 13.7944C9.247 13.7946 5.62513 17.4164 5.625 21.8843C5.625 26.3522 9.24692 29.974 13.7148 29.9741C18.1829 29.9741 21.8047 26.3523 21.8047 21.8843C21.8046 17.4164 18.1828 13.7944 13.7148 13.7944Z" fill="#1A3495"/>
<rect x="21.0803" y="27.4885" width="9.96275" height="2.49069" rx="0.622672" transform="rotate(45 21.0803 27.4885)" fill="#F2F2F2" stroke="#1A3495" stroke-width="0.9375"/>
</g>
<defs>
<clipPath id="clip0_1178_30060">
<rect width="40" height="40" rx="5" fill="white"/>
</clipPath>
</defs>
</svg>
