<svg width="40" height="40" viewBox="0 0 40 40" fill="none" xmlns="http://www.w3.org/2000/svg">
<g clip-path="url(#clip0_1231_5065)">
<path d="M36.542 26.3954V26.6044H3.20801V26.3954H36.542Z" stroke="#A7ABCB" stroke-width="0.416667"/>
<path d="M12.375 25.3485L13.5265 26.5L12.375 27.6515" stroke="#4C5C99" stroke-width="0.625" stroke-linecap="round"/>
<path d="M14.7764 25.3485L15.9278 26.5L14.7764 27.6515" stroke="#4C5C99" stroke-width="0.625" stroke-linecap="round"/>
<path d="M26.5706 25.3485L27.722 26.5L26.5706 27.6515" stroke="#4C5C99" stroke-width="0.625" stroke-linecap="round"/>
<path d="M13 11.6387L13.3913 11.9499L13.6389 11.6387L13.3913 11.3274L13 11.6387ZM11.2924 8.68875C11.1205 8.47263 10.806 8.43679 10.5899 8.60869C10.3738 8.78059 10.3379 9.09514 10.5098 9.31125L11.2924 8.68875ZM10.5098 13.966C10.3379 14.1822 10.3738 14.4967 10.5899 14.6686C10.806 14.8405 11.1205 14.8047 11.2924 14.5886L10.5098 13.966ZM4.875 23.4782H5.375V12.675H4.875H4.375V23.4782H4.875ZM5.76379 11.6387V12.1387H13V11.6387V11.1387H5.76379V11.6387ZM4.875 12.675H5.375C5.375 12.4574 5.42692 12.3193 5.48233 12.2474C5.52288 12.1947 5.59219 12.1387 5.76379 12.1387V11.6387V11.1387C5.31366 11.1387 4.93857 11.3146 4.69016 11.6371C4.45661 11.9402 4.375 12.3202 4.375 12.675H4.875ZM13 11.6387L13.3913 11.3274L11.2924 8.68875L10.9011 9L10.5098 9.31125L12.6087 11.9499L13 11.6387ZM13 11.6387L12.6087 11.3274L10.5098 13.966L10.9011 14.2773L11.2924 14.5886L13.3913 11.9499L13 11.6387Z" fill="#FAA700"/>
<path d="M4.6875 23.375V29.3896C4.6875 29.5196 4.79291 29.625 4.92294 29.625H6.8695C6.99953 29.625 7.10494 29.5196 7.10494 29.3896V23.6105C7.10494 23.4804 6.99953 23.375 6.8695 23.375H5.89622L4.6875 23.375Z" fill="#CCDAFF" stroke="#7283C7" stroke-width="0.625"/>
<rect width="2.5" height="6.25" rx="0.235436" transform="matrix(-1 0 0 1 34.875 23.375)" fill="#CCDAFF" stroke="#7283C7" stroke-width="0.625"/>
<path d="M25.0293 21.3457V31.0293H17.2207V21.3457H25.0293ZM32.5293 21.3457V31.0293H29.0957V21.3457H32.5293Z" fill="#4361D0" stroke="#1A3495" stroke-width="0.941746"/>
<mask id="path-10-inside-1_1231_5065" fill="white">
<rect x="6.75" y="20.875" width="4.375" height="10.625" rx="0.470873"/>
</mask>
<rect x="6.75" y="20.875" width="4.375" height="10.625" rx="0.470873" fill="#4361D0" stroke="#1A3495" stroke-width="1.88349" mask="url(#path-10-inside-1_1231_5065)"/>
</g>
<defs>
<clipPath id="clip0_1231_5065">
<rect width="40" height="40" rx="5" fill="white"/>
</clipPath>
</defs>
</svg>
