<svg width="40" height="40" viewBox="0 0 40 40" fill="none" xmlns="http://www.w3.org/2000/svg">
<path d="M35.2095 12.9378V26.4908H33.8529V13.8971H27.2656C25.5535 13.8971 24.1654 12.509 24.1654 10.7969V4.20956H7.89059C6.92755 4.20956 6.14703 4.99008 6.14703 5.95312V34.0469L6.15555 34.2247C6.24463 35.1042 6.98758 35.7904 7.89059 35.7904H24.5533V37.1471H7.89059C6.17851 37.1471 4.79041 35.759 4.79041 34.0469V5.95312C4.79041 4.24104 6.17851 2.85294 7.89059 2.85294H25.1247L35.2095 12.9378ZM25.522 10.7969C25.522 11.7599 26.3025 12.5404 27.2656 12.5404H32.8936L25.522 5.16885V10.7969Z" fill="#1A3495"/>
<path d="M25.522 10.7969C25.522 11.7599 26.3025 12.5404 27.2656 12.5404H32.8936L25.522 5.16885V10.7969Z" fill="#7283C7" fill-opacity="0.7"/>
<path d="M26.75 28.75L33.25 35.25M26.75 28.75V35.25M26.75 28.75H33.25" stroke="#FAA700" stroke-width="1.45312" stroke-linecap="round"/>
<path d="M7.40625 16.125H10.81M12.1715 16.125H17.6174M18.9789 16.125H24.4248M25.7863 16.125H28.5093M29.8708 16.125H32.5938M7.40625 20H10.81M12.1715 20H17.6174M18.9789 20H24.4248M25.7863 20H28.5093M29.8708 20H32.5938M7.40625 23.875H10.81M12.1715 23.875H17.6174M18.9789 23.875H24.4248M25.7863 23.875H28.5093M29.8708 23.875H32.5938" stroke="#9CA8D8" stroke-width="1.02111"/>
</svg>
