<svg width="40" height="40" viewBox="0 0 40 40" fill="none" xmlns="http://www.w3.org/2000/svg">
<g clip-path="url(#clip0_2743_791)">
<g clip-path="url(#clip1_2743_791)">
<path d="M28.9388 3.34907C28.5025 3.24102 27.8557 3.47471 27.2477 3.68139C26.6452 3.8861 25.8876 3.96322 24.9994 4.04779C24.1694 4.12682 23.2081 4.21396 22.3787 4.49559C21.5557 4.77522 20.5561 5.3529 20.0368 6.6706C19.5175 7.98851 19.8544 9.09258 20.2655 9.85855C20.6798 10.6303 21.3233 11.3497 21.8763 11.9737C22.468 12.6414 22.9693 13.2146 23.2703 13.7753C23.5736 14.3406 23.5242 14.611 23.4701 14.749C23.4159 14.8866 23.2679 15.1198 22.659 15.3267C22.0564 15.5314 21.2988 15.6086 20.4107 15.6931C19.5806 15.7722 18.6194 15.8593 17.79 16.1409C16.9669 16.4206 15.9674 16.9981 15.448 18.316C14.9291 19.6332 15.2644 20.7371 15.6751 21.5033C16.0894 22.2757 16.7335 22.9967 17.2867 23.6213C17.8782 24.2891 18.3804 24.8601 18.6815 25.4207C18.9858 25.9873 18.9349 26.258 18.8814 26.3943C18.8278 26.5303 18.6805 26.7632 18.0711 26.9699C17.4687 27.1741 16.7115 27.2498 15.8237 27.3341C14.9936 27.4129 14.0324 27.5003 13.203 27.7819C12.3798 28.0615 11.3803 28.639 10.861 29.9569C10.342 31.2746 9.47324 32.0883 9.88428 32.8542C10.2986 33.6259 10.9421 34.3454 11.4951 34.9693C12.0868 35.637 12.5881 36.2102 12.8891 36.7709C13.1927 37.3369 13.1431 37.6068 13.0889 37.7446C13.0346 37.8822 12.8869 38.1154 12.2777 38.3223C11.6752 38.527 10.9184 38.602 10.0303 38.6866C9.20009 38.7656 8.23837 38.8547 7.40876 39.1365C6.58566 39.4162 5.58614 39.9937 5.06684 41.3116C4.54824 42.6287 4.8832 43.7328 5.29392 44.4989C5.7081 45.2712 6.35318 45.9902 6.90633 46.6147C7.49797 47.2827 7.99924 47.8556 8.30032 48.4163C8.60491 48.9836 8.55381 49.2537 8.50015 49.3899C8.4465 49.5259 8.29974 49.7568 7.69073 49.9633C7.08827 50.1676 6.33057 50.2454 5.44246 50.3297C4.61236 50.4085 3.65116 50.4958 2.82175 50.7775C1.99885 51.057 1.00012 51.6332 0.480685 52.9503C-0.0384922 54.2679 1.50152 55.6643 1.91235 56.4305C2.32654 57.2029 2.97161 57.9219 3.52476 58.5464C4.11641 59.2143 4.61768 59.7872 4.91875 60.348C5.22334 60.9152 5.17224 61.1854 5.11858 61.3216C5.06483 61.4578 4.91745 61.6904 4.3083 61.8972C3.70579 62.1016 2.94882 62.1768 2.06089 62.2614C1.2308 62.3404 0.26942 62.4278 -0.559816 62.7092C-1.38209 62.9883 -2.38163 63.5652 -2.90088 64.882C-3.42005 66.1995 -3.08238 67.3028 -2.67131 68.0678C-2.25684 68.839 -1.6137 69.5591 -1.06052 70.1829C-0.46877 70.8503 0.0325542 71.4239 0.333465 71.9845C0.637289 72.5508 0.587519 72.8205 0.5333 72.9582C0.47899 73.096 0.331231 73.3287 -0.277849 73.5359C-0.880487 73.7409 -1.638 73.8175 -2.52612 73.9023C-3.35623 73.9816 -4.31762 74.0687 -5.14683 74.3501C-5.9691 74.6293 -6.96865 75.2061 -7.48789 76.523C-8.00707 77.8405 -7.6694 78.9438 -7.25833 79.7087C-6.84385 80.4799 -6.20072 81.2 -5.64754 81.8239C-5.05578 82.4913 -4.55446 83.0649 -4.25355 83.6255C-3.94968 84.1919 -3.99948 84.4615 -4.05371 84.5991L-2.39608 85.2523C-1.87689 83.9347 -2.21216 82.8309 -2.62316 82.065C-3.03757 81.2929 -3.68223 80.5732 -4.23557 79.9492C-4.82741 79.2817 -5.32926 78.7101 -5.63042 78.1498C-5.93507 77.5829 -5.88385 77.3121 -5.83026 77.1761C-5.77633 77.0399 -5.6286 76.8092 -5.02084 76.6027C-4.41821 76.3981 -3.66081 76.3212 -2.77257 76.2363C-1.94198 76.157 -0.979255 76.0692 -0.149373 75.787C0.673673 75.5069 1.67181 74.9288 2.19093 73.6113C2.71008 72.2937 2.37485 71.1899 1.96385 70.424C1.54944 69.652 0.904793 68.9323 0.351445 68.3082C-0.240413 67.6407 -0.742245 67.0691 -1.04341 66.5088C-1.34805 65.942 -1.29683 65.6712 -1.24324 65.5352C-1.18929 65.3989 -1.04147 65.1682 -0.433821 64.9618C0.168746 64.7572 0.926343 64.6799 1.81445 64.5954C2.64457 64.5163 3.60588 64.429 4.43516 64.1476C5.25757 63.8684 6.25704 63.292 6.77622 61.9748C7.29536 60.6573 6.95754 59.5542 6.54666 58.789C6.13225 58.0174 5.48974 57.296 4.93673 56.6716C4.34526 56.0039 2.63809 55.1402 2.33729 54.5793C2.0337 54.0128 2.08403 53.7413 2.13832 53.6035C2.19291 53.4657 2.34148 53.2342 2.9486 53.0279C3.55105 52.8233 4.30893 52.7458 5.19688 52.6615C6.02673 52.5827 6.9877 52.4969 7.81672 52.2159C8.6391 51.937 9.63855 51.3606 10.1578 50.0431C10.6769 48.7256 10.3391 47.6226 9.92822 46.8573C9.51387 46.0858 8.87038 45.3664 8.31743 44.7421C7.72589 44.0743 7.22513 43.4993 6.92431 42.9383C6.62148 42.3732 6.67033 42.1028 6.72447 41.9647C6.77871 41.8271 6.92686 41.5939 7.53562 41.3869C8.13815 41.1822 8.89576 41.1051 9.78389 41.0206C10.6142 40.9415 11.5766 40.8553 12.4062 40.5734C13.2292 40.2936 14.2274 39.7153 14.7465 38.3977C15.2655 37.0802 14.9304 35.9763 14.5194 35.2104C14.1051 34.4383 13.4603 33.7188 12.907 33.0946C12.3153 32.4269 11.814 31.8537 11.513 31.293C11.2096 30.7272 12.4645 30.7478 12.5187 30.6101C12.5729 30.4724 12.7208 30.2392 13.3298 30.0323C13.9323 29.8277 14.6893 29.7524 15.5772 29.6681C16.4073 29.5893 17.3687 29.5014 18.1979 29.2203C19.0203 28.9414 20.0198 28.3651 20.539 27.0475C21.0579 25.7302 20.7203 24.6269 20.3094 23.8617C19.895 23.0903 19.2515 22.3708 18.6986 21.7465C18.1071 21.0787 17.6055 20.5059 17.3047 19.9449C17.0009 19.3784 17.0514 19.107 17.1057 18.9691C17.1599 18.8315 17.3078 18.5983 17.9168 18.3913C18.5194 18.1866 19.2761 18.1117 20.1642 18.0271C20.9946 17.9481 21.9577 17.8597 22.7874 17.5778C23.6103 17.298 24.6086 16.7195 25.1277 15.4021C25.6462 14.0853 25.3105 12.9827 24.8998 12.217C24.4854 11.4449 23.8415 10.7233 23.2882 10.099C22.6965 9.43133 22.1943 8.8603 21.8934 8.29959C21.5893 7.73281 21.6402 7.46146 21.6944 7.32378C21.7487 7.18613 21.8967 6.95494 22.5047 6.74819C23.1072 6.54348 23.8648 6.46636 24.753 6.38179C25.5833 6.30273 26.5456 6.21653 27.3753 5.93462C28.1982 5.65497 28.0578 3.10553 31.5536 4.28106C32.9187 4.74009 30.7896 3.8074 28.9388 3.34907Z" fill="#FFCC66"/>
</g>
<g clip-path="url(#clip2_2743_791)">
<path d="M36.8725 30.6074C33.4116 30.6074 31.7281 27.9161 30.1012 25.3127C28.5758 22.8733 27.1364 20.5687 24.324 20.5687C21.5116 20.5687 20.0722 22.8733 18.5468 25.3127C16.9199 27.9161 15.2384 30.6074 11.7756 30.6074C8.31279 30.6074 6.6312 27.9161 5.00429 25.3127C3.66059 23.1623 2.39109 21.1311 0.211472 20.6683C-0.104925 20.6019 -0.308043 20.2894 -0.239686 19.973C-0.173282 19.6566 0.137256 19.4535 0.455605 19.5218C3.12154 20.0882 4.58438 22.428 5.9984 24.6916C7.52375 27.131 8.96316 29.4356 11.7756 29.4356C14.588 29.4356 16.0274 27.131 17.5527 24.6916C19.1796 22.0881 20.8612 19.3968 24.324 19.3968C27.7868 19.3968 29.4684 22.0881 31.0953 24.6916C32.6206 27.131 34.06 29.4356 36.8725 29.4356C37.1967 29.4356 37.4584 29.6973 37.4584 30.0215C37.4584 30.3457 37.1967 30.6074 36.8725 30.6074Z" fill="#7487D1"/>
<mask id="mask0_2743_791" style="mask-type:luminance" maskUnits="userSpaceOnUse" x="-2" y="18" width="44" height="14">
<path d="M-1.3606 18.3049V31.699H41.351V18.3049H-1.3606ZM6.39683 27.4058C5.8988 26.7417 5.52175 26.133 5.0745 25.4182C5.3655 24.9788 5.47287 24.7735 5.75607 24.3203C5.87716 24.5117 5.94918 24.6485 6.06832 24.8399C6.41792 25.4004 6.75415 25.893 7.1018 26.3969C6.73853 26.975 6.80502 26.8414 6.39683 27.4058ZM32.3554 28.4729C31.8202 27.8948 31.3417 27.2405 30.8906 26.5589C31.33 25.9964 31.258 26.045 31.6096 25.4923C32.0881 26.2461 32.5588 26.9492 33.0685 27.5449C32.6408 28.1797 32.7382 28.0276 32.3554 28.4729Z" fill="white"/>
</mask>
<g mask="url(#mask0_2743_791)">
<path d="M26.6581 30.9181C23.002 30.9181 21.2208 28.0686 19.4982 25.3128C17.8732 22.7133 16.3381 20.2583 13.3323 20.2583C10.3266 20.2583 8.79146 22.7133 7.16651 25.3128C5.44391 28.0686 3.66271 30.9181 0.00657386 30.9181C-0.317635 30.9181 -0.579346 30.6564 -0.579346 30.3322C-0.579346 30.008 -0.317635 29.7463 0.00657386 29.7463C3.01234 29.7463 4.54745 27.2913 6.1724 24.6917C7.895 21.936 9.6762 19.0864 13.3323 19.0864C16.9885 19.0864 18.7697 21.936 20.4923 24.6917C22.1172 27.2913 23.6523 29.7463 26.6581 29.7463C29.6639 29.7463 31.199 27.2913 32.8239 24.6917C34.5465 21.936 36.3277 19.0864 39.9839 19.0864C40.3081 19.0864 40.5698 19.3482 40.5698 19.6724C40.5698 19.9966 40.3081 20.2583 39.9839 20.2583C36.9761 20.2583 35.443 22.7133 33.818 25.3128C32.0954 28.0686 30.3142 30.9181 26.6581 30.9181Z" fill="#1A3495"/>
</g>
</g>
<path d="M30.6816 26.8317C30.288 26.2874 29.9213 25.71 29.5578 25.1375L29.5554 25.1337C28.1859 22.9783 26.8928 20.9431 24.3676 20.9431C22.4345 20.9431 21.2235 22.1358 20.1475 23.662C20.413 24.0568 20.6698 24.4611 20.9251 24.8631C22.3849 27.1614 23.7641 29.332 26.4645 29.332C28.3593 29.332 29.6035 28.2633 30.6816 26.8317Z" fill="#1A3495" fill-opacity="0.16"/>
<g clip-path="url(#clip3_2743_791)">
<mask id="path-6-outside-1_2743_791" maskUnits="userSpaceOnUse" x="6.15232" y="1.03862" width="50.7764" height="81.4" fill="black">
<rect fill="white" x="6.15232" y="1.03862" width="50.7764" height="81.4"/>
<path d="M54.2422 76.3686C54.1781 76.2457 54.0272 76.0401 53.5279 75.862C53.0331 75.6855 52.4402 75.6254 51.7461 75.5602C51.0974 75.4992 50.3469 75.4325 49.6657 75.1898C48.9898 74.9488 48.1302 74.4426 47.5181 73.2669C46.9061 72.091 46.9847 71.0966 47.175 70.4047C47.367 69.7075 47.7429 69.0545 48.0651 68.4882C48.4098 67.8823 48.7007 67.3621 48.84 66.8556C48.9805 66.345 48.8987 66.1031 48.8348 65.9799C48.7709 65.8571 48.6197 65.6497 48.1195 65.4714C47.6247 65.295 47.0318 65.2348 46.3377 65.1696C45.689 65.1086 44.9385 65.042 44.2574 64.7992C43.5814 64.5582 42.7218 64.0522 42.1098 62.8763C41.4981 61.701 41.5755 60.7068 41.7656 60.0147C41.9573 59.3169 42.3335 58.6625 42.6557 58.0957C43.0003 57.4896 43.2922 56.9715 43.4317 56.465C43.5726 55.9532 43.4897 55.711 43.4265 55.5893C43.3633 55.468 43.2126 55.2608 42.7122 55.0827C42.2176 54.9068 41.6252 54.8479 40.9314 54.7829C40.2827 54.7221 39.5322 54.6553 38.851 54.4125C38.1751 54.1716 37.3155 53.6655 36.7035 52.4896C36.0916 51.3139 35.2939 50.5945 35.4842 49.9026C35.6762 49.2055 36.0521 48.5524 36.3743 47.9861C36.719 47.3802 37.0098 46.86 37.1492 46.3535C37.2898 45.8422 37.2079 45.6008 37.144 45.4778C37.0801 45.355 36.929 45.1476 36.4287 44.9693C35.9339 44.7929 35.342 44.7347 34.6479 44.6694C33.9991 44.6084 33.2479 44.54 32.5665 44.2971C31.8906 44.0561 31.031 43.5501 30.419 42.3742C29.8076 41.199 29.8846 40.2046 30.0747 39.5126C30.2664 38.8149 30.6437 38.1623 30.9659 37.5955C31.3105 36.9893 31.6014 36.4694 31.7408 35.9629C31.8819 35.4505 31.7989 35.2087 31.7356 35.0872C31.6724 34.9659 31.5225 34.7606 31.0224 34.5826C30.5277 34.4065 29.9346 34.3458 29.2406 34.2808C28.5919 34.22 27.8414 34.1532 27.1602 33.9104C26.4844 33.6695 25.6257 33.1647 25.0136 31.9895C24.4017 30.8138 25.3544 29.5429 25.5446 28.8507C25.7363 28.153 26.1135 27.5004 26.4357 26.9337C26.7804 26.3275 27.0712 25.8076 27.2107 25.3011C27.3518 24.7886 27.2687 24.5469 27.2055 24.4254C27.1421 24.3039 26.9914 24.097 26.4912 23.9188C25.9964 23.7426 25.4043 23.6842 24.7104 23.619C24.0617 23.558 23.311 23.491 22.63 23.2486C21.9548 23.008 21.0953 22.5025 20.4835 21.3276C19.8716 20.152 19.9509 19.1584 20.1414 18.4674C20.3335 17.7707 20.7091 17.1171 21.0314 16.5509C21.3762 15.9453 21.667 15.4247 21.8064 14.9183C21.9471 14.4068 21.8651 14.1655 21.8012 14.0426C21.7372 13.9197 21.5862 13.7127 21.0859 13.5341C20.5909 13.3574 19.9982 13.2977 19.3041 13.2323C18.6553 13.1711 17.9047 13.1044 17.2237 12.8619C16.5485 12.6213 15.689 12.1159 15.0772 10.9409C14.4652 9.76534 14.5445 8.77174 14.7351 8.08071C14.9272 7.38403 15.3028 6.73043 15.6251 6.16425C15.9699 5.55858 16.2607 5.03807 16.4001 4.53164C16.5408 4.01999 12.2387 5.46841 12.2387 5.46841C12.2387 5.46841 16.2467 2.15387 17.4028 3.07436C18.559 3.99484 18.093 5.21998 17.9027 5.91189C17.7108 6.60933 17.3339 7.2626 17.0115 7.82895C16.6667 8.43471 16.3752 8.95341 16.2356 9.4596C16.0943 9.97167 16.1776 10.2139 16.2408 10.3353C16.3042 10.4568 16.4549 10.662 16.954 10.8399C17.4489 11.0163 18.0416 11.0763 18.7358 11.1417C19.385 11.2029 20.1367 11.2702 20.8183 11.5135C21.4943 11.7548 22.3529 12.2615 22.9648 13.437C23.5767 14.6126 23.4993 15.6067 23.309 16.2986C23.1171 16.996 22.7403 17.6493 22.4178 18.2156C22.073 18.8214 21.7815 19.3401 21.6419 19.8463C21.5007 20.3583 21.5839 20.6006 21.6471 20.7219C21.7106 20.8435 21.8613 21.0487 22.3603 21.2266C22.8552 21.4029 23.4481 21.4631 24.1422 21.5284C24.7909 21.5894 25.5415 21.6563 26.2225 21.8988C26.8979 22.1393 27.7572 22.6444 28.3691 23.8197C28.9809 24.9953 28.9015 25.9887 28.7111 26.68C28.5191 27.377 28.1442 28.0318 27.8221 28.5984C27.4776 29.2044 26.3103 29.9994 26.171 30.5061C26.0306 31.018 26.1133 31.2609 26.1773 31.3838C26.2415 31.5067 26.3929 31.7126 26.8915 31.8904C27.3863 32.0668 27.9795 32.1272 28.6734 32.1922C29.3219 32.253 30.0719 32.3185 30.7527 32.5606C31.428 32.8009 32.2873 33.306 32.8993 34.4816C33.5111 35.6571 33.4317 36.6505 33.2413 37.3418C33.0493 38.0387 32.6734 38.6917 32.3513 39.2583C32.0067 39.8644 31.7166 40.3861 31.5774 40.8928C31.4373 41.4034 31.5186 41.6453 31.5826 41.7685C31.6465 41.8913 31.7979 42.0987 32.2979 42.2771C32.7927 42.4535 33.3856 42.5136 34.0797 42.5789C34.7286 42.6399 35.4798 42.7057 36.1612 42.9486C36.837 43.1897 37.6957 43.6966 38.3076 44.8722C38.9194 46.0477 38.8421 47.0419 38.6518 47.7338C38.4599 48.4313 38.083 49.0843 37.7607 49.6508C37.4159 50.2568 37.1251 50.7769 36.9857 51.2834C36.8452 51.7945 37.8032 51.761 37.8671 51.8839C37.8671 51.8839 38.0822 52.2142 38.5824 52.3925C39.0771 52.5689 39.6693 52.6273 40.3632 52.6923C41.0118 52.7531 41.7626 52.8205 42.4435 53.0627C43.1188 53.303 43.9781 53.808 44.5901 54.9837C45.2017 56.159 45.1225 57.1527 44.9322 57.8439C44.7401 58.5408 44.3642 59.1939 44.0421 59.7604C43.6975 60.3665 43.4064 60.8862 43.2672 61.393C43.1266 61.9048 43.2094 62.1476 43.2734 62.2706C43.3373 62.3935 43.4885 62.6008 43.9887 62.7792C44.4835 62.9556 45.0754 63.0138 45.7695 63.079C46.4184 63.14 47.1705 63.2078 47.852 63.4508C48.5278 63.6919 49.3866 64.1989 49.9984 65.3743C50.6097 66.5493 50.5318 67.5422 50.3416 68.2339C50.1497 68.9315 49.7738 69.5864 49.4515 70.1529C49.1068 70.7589 48.8149 71.2771 48.6755 71.7836C48.5347 72.2956 48.6178 72.5384 48.6817 72.6612C48.7457 72.784 48.8967 72.9896 49.396 73.1678C49.8909 73.3442 50.4838 73.4044 51.1778 73.4696C51.8268 73.5306 52.5779 73.5965 53.2593 73.8394C53.9352 74.0804 54.7938 74.5875 55.4058 75.7629L54.2422 76.3686Z"/>
</mask>
<path d="M54.2422 76.3686C54.1781 76.2457 54.0272 76.0401 53.5279 75.862C53.0331 75.6855 52.4402 75.6254 51.7461 75.5602C51.0974 75.4992 50.3469 75.4325 49.6657 75.1898C48.9898 74.9488 48.1302 74.4426 47.5181 73.2669C46.9061 72.091 46.9847 71.0966 47.175 70.4047C47.367 69.7075 47.7429 69.0545 48.0651 68.4882C48.4098 67.8823 48.7007 67.3621 48.84 66.8556C48.9805 66.345 48.8987 66.1031 48.8348 65.9799C48.7709 65.8571 48.6197 65.6497 48.1195 65.4714C47.6247 65.295 47.0318 65.2348 46.3377 65.1696C45.689 65.1086 44.9385 65.042 44.2574 64.7992C43.5814 64.5582 42.7218 64.0522 42.1098 62.8763C41.4981 61.701 41.5755 60.7068 41.7656 60.0147C41.9573 59.3169 42.3335 58.6625 42.6557 58.0957C43.0003 57.4896 43.2922 56.9715 43.4317 56.465C43.5726 55.9532 43.4897 55.711 43.4265 55.5893C43.3633 55.468 43.2126 55.2608 42.7122 55.0827C42.2176 54.9068 41.6252 54.8479 40.9314 54.7829C40.2827 54.7221 39.5322 54.6553 38.851 54.4125C38.1751 54.1716 37.3155 53.6655 36.7035 52.4896C36.0916 51.3139 35.2939 50.5945 35.4842 49.9026C35.6762 49.2055 36.0521 48.5524 36.3743 47.9861C36.719 47.3802 37.0098 46.86 37.1492 46.3535C37.2898 45.8422 37.2079 45.6008 37.144 45.4778C37.0801 45.355 36.929 45.1476 36.4287 44.9693C35.9339 44.7929 35.342 44.7347 34.6479 44.6694C33.9991 44.6084 33.2479 44.54 32.5665 44.2971C31.8906 44.0561 31.031 43.5501 30.419 42.3742C29.8076 41.199 29.8846 40.2046 30.0747 39.5126C30.2664 38.8149 30.6437 38.1623 30.9659 37.5955C31.3105 36.9893 31.6014 36.4694 31.7408 35.9629C31.8819 35.4505 31.7989 35.2087 31.7356 35.0872C31.6724 34.9659 31.5225 34.7606 31.0224 34.5826C30.5277 34.4065 29.9346 34.3458 29.2406 34.2808C28.5919 34.22 27.8414 34.1532 27.1602 33.9104C26.4844 33.6695 25.6257 33.1647 25.0136 31.9895C24.4017 30.8138 25.3544 29.5429 25.5446 28.8507C25.7363 28.153 26.1135 27.5004 26.4357 26.9337C26.7804 26.3275 27.0712 25.8076 27.2107 25.3011C27.3518 24.7886 27.2687 24.5469 27.2055 24.4254C27.1421 24.3039 26.9914 24.097 26.4912 23.9188C25.9964 23.7426 25.4043 23.6842 24.7104 23.619C24.0617 23.558 23.311 23.491 22.63 23.2486C21.9548 23.008 21.0953 22.5025 20.4835 21.3276C19.8716 20.152 19.9509 19.1584 20.1414 18.4674C20.3335 17.7707 20.7091 17.1171 21.0314 16.5509C21.3762 15.9453 21.667 15.4247 21.8064 14.9183C21.9471 14.4068 21.8651 14.1655 21.8012 14.0426C21.7372 13.9197 21.5862 13.7127 21.0859 13.5341C20.5909 13.3574 19.9982 13.2977 19.3041 13.2323C18.6553 13.1711 17.9047 13.1044 17.2237 12.8619C16.5485 12.6213 15.689 12.1159 15.0772 10.9409C14.4652 9.76534 14.5445 8.77174 14.7351 8.08071C14.9272 7.38403 15.3028 6.73043 15.6251 6.16425C15.9699 5.55858 16.2607 5.03807 16.4001 4.53164C16.5408 4.01999 12.2387 5.46841 12.2387 5.46841C12.2387 5.46841 16.2467 2.15387 17.4028 3.07436C18.559 3.99484 18.093 5.21998 17.9027 5.91189C17.7108 6.60933 17.3339 7.2626 17.0115 7.82895C16.6667 8.43471 16.3752 8.95341 16.2356 9.4596C16.0943 9.97167 16.1776 10.2139 16.2408 10.3353C16.3042 10.4568 16.4549 10.662 16.954 10.8399C17.4489 11.0163 18.0416 11.0763 18.7358 11.1417C19.385 11.2029 20.1367 11.2702 20.8183 11.5135C21.4943 11.7548 22.3529 12.2615 22.9648 13.437C23.5767 14.6126 23.4993 15.6067 23.309 16.2986C23.1171 16.996 22.7403 17.6493 22.4178 18.2156C22.073 18.8214 21.7815 19.3401 21.6419 19.8463C21.5007 20.3583 21.5839 20.6006 21.6471 20.7219C21.7106 20.8435 21.8613 21.0487 22.3603 21.2266C22.8552 21.4029 23.4481 21.4631 24.1422 21.5284C24.7909 21.5894 25.5415 21.6563 26.2225 21.8988C26.8979 22.1393 27.7572 22.6444 28.3691 23.8197C28.9809 24.9953 28.9015 25.9887 28.7111 26.68C28.5191 27.377 28.1442 28.0318 27.8221 28.5984C27.4776 29.2044 26.3103 29.9994 26.171 30.5061C26.0306 31.018 26.1133 31.2609 26.1773 31.3838C26.2415 31.5067 26.3929 31.7126 26.8915 31.8904C27.3863 32.0668 27.9795 32.1272 28.6734 32.1922C29.3219 32.253 30.0719 32.3185 30.7527 32.5606C31.428 32.8009 32.2873 33.306 32.8993 34.4816C33.5111 35.6571 33.4317 36.6505 33.2413 37.3418C33.0493 38.0387 32.6734 38.6917 32.3513 39.2583C32.0067 39.8644 31.7166 40.3861 31.5774 40.8928C31.4373 41.4034 31.5186 41.6453 31.5826 41.7685C31.6465 41.8913 31.7979 42.0987 32.2979 42.2771C32.7927 42.4535 33.3856 42.5136 34.0797 42.5789C34.7286 42.6399 35.4798 42.7057 36.1612 42.9486C36.837 43.1897 37.6957 43.6966 38.3076 44.8722C38.9194 46.0477 38.8421 47.0419 38.6518 47.7338C38.4599 48.4313 38.083 49.0843 37.7607 49.6508C37.4159 50.2568 37.1251 50.7769 36.9857 51.2834C36.8452 51.7945 37.8032 51.761 37.8671 51.8839C37.8671 51.8839 38.0822 52.2142 38.5824 52.3925C39.0771 52.5689 39.6693 52.6273 40.3632 52.6923C41.0118 52.7531 41.7626 52.8205 42.4435 53.0627C43.1188 53.303 43.9781 53.808 44.5901 54.9837C45.2017 56.159 45.1225 57.1527 44.9322 57.8439C44.7401 58.5408 44.3642 59.1939 44.0421 59.7604C43.6975 60.3665 43.4064 60.8862 43.2672 61.393C43.1266 61.9048 43.2094 62.1476 43.2734 62.2706C43.3373 62.3935 43.4885 62.6008 43.9887 62.7792C44.4835 62.9556 45.0754 63.0138 45.7695 63.079C46.4184 63.14 47.1705 63.2078 47.852 63.4508C48.5278 63.6919 49.3866 64.1989 49.9984 65.3743C50.6097 66.5493 50.5318 67.5422 50.3416 68.2339C50.1497 68.9315 49.7738 69.5864 49.4515 70.1529C49.1068 70.7589 48.8149 71.2771 48.6755 71.7836C48.5347 72.2956 48.6178 72.5384 48.6817 72.6612C48.7457 72.784 48.8967 72.9896 49.396 73.1678C49.8909 73.3442 50.4838 73.4044 51.1778 73.4696C51.8268 73.5306 52.5779 73.5965 53.2593 73.8394C53.9352 74.0804 54.7938 74.5875 55.4058 75.7629L54.2422 76.3686Z" fill="#FAA700"/>
<path d="M54.2422 76.3686C54.1781 76.2457 54.0272 76.0401 53.5279 75.862C53.0331 75.6855 52.4402 75.6254 51.7461 75.5602C51.0974 75.4992 50.3469 75.4325 49.6657 75.1898C48.9898 74.9488 48.1302 74.4426 47.5181 73.2669C46.9061 72.091 46.9847 71.0966 47.175 70.4047C47.367 69.7075 47.7429 69.0545 48.0651 68.4882C48.4098 67.8823 48.7007 67.3621 48.84 66.8556C48.9805 66.345 48.8987 66.1031 48.8348 65.9799C48.7709 65.8571 48.6197 65.6497 48.1195 65.4714C47.6247 65.295 47.0318 65.2348 46.3377 65.1696C45.689 65.1086 44.9385 65.042 44.2574 64.7992C43.5814 64.5582 42.7218 64.0522 42.1098 62.8763C41.4981 61.701 41.5755 60.7068 41.7656 60.0147C41.9573 59.3169 42.3335 58.6625 42.6557 58.0957C43.0003 57.4896 43.2922 56.9715 43.4317 56.465C43.5726 55.9532 43.4897 55.711 43.4265 55.5893C43.3633 55.468 43.2126 55.2608 42.7122 55.0827C42.2176 54.9068 41.6252 54.8479 40.9314 54.7829C40.2827 54.7221 39.5322 54.6553 38.851 54.4125C38.1751 54.1716 37.3155 53.6655 36.7035 52.4896C36.0916 51.3139 35.2939 50.5945 35.4842 49.9026C35.6762 49.2055 36.0521 48.5524 36.3743 47.9861C36.719 47.3802 37.0098 46.86 37.1492 46.3535C37.2898 45.8422 37.2079 45.6008 37.144 45.4778C37.0801 45.355 36.929 45.1476 36.4287 44.9693C35.9339 44.7929 35.342 44.7347 34.6479 44.6694C33.9991 44.6084 33.2479 44.54 32.5665 44.2971C31.8906 44.0561 31.031 43.5501 30.419 42.3742C29.8076 41.199 29.8846 40.2046 30.0747 39.5126C30.2664 38.8149 30.6437 38.1623 30.9659 37.5955C31.3105 36.9893 31.6014 36.4694 31.7408 35.9629C31.8819 35.4505 31.7989 35.2087 31.7356 35.0872C31.6724 34.9659 31.5225 34.7606 31.0224 34.5826C30.5277 34.4065 29.9346 34.3458 29.2406 34.2808C28.5919 34.22 27.8414 34.1532 27.1602 33.9104C26.4844 33.6695 25.6257 33.1647 25.0136 31.9895C24.4017 30.8138 25.3544 29.5429 25.5446 28.8507C25.7363 28.153 26.1135 27.5004 26.4357 26.9337C26.7804 26.3275 27.0712 25.8076 27.2107 25.3011C27.3518 24.7886 27.2687 24.5469 27.2055 24.4254C27.1421 24.3039 26.9914 24.097 26.4912 23.9188C25.9964 23.7426 25.4043 23.6842 24.7104 23.619C24.0617 23.558 23.311 23.491 22.63 23.2486C21.9548 23.008 21.0953 22.5025 20.4835 21.3276C19.8716 20.152 19.9509 19.1584 20.1414 18.4674C20.3335 17.7707 20.7091 17.1171 21.0314 16.5509C21.3762 15.9453 21.667 15.4247 21.8064 14.9183C21.9471 14.4068 21.8651 14.1655 21.8012 14.0426C21.7372 13.9197 21.5862 13.7127 21.0859 13.5341C20.5909 13.3574 19.9982 13.2977 19.3041 13.2323C18.6553 13.1711 17.9047 13.1044 17.2237 12.8619C16.5485 12.6213 15.689 12.1159 15.0772 10.9409C14.4652 9.76534 14.5445 8.77174 14.7351 8.08071C14.9272 7.38403 15.3028 6.73043 15.6251 6.16425C15.9699 5.55858 16.2607 5.03807 16.4001 4.53164C16.5408 4.01999 12.2387 5.46841 12.2387 5.46841C12.2387 5.46841 16.2467 2.15387 17.4028 3.07436C18.559 3.99484 18.093 5.21998 17.9027 5.91189C17.7108 6.60933 17.3339 7.2626 17.0115 7.82895C16.6667 8.43471 16.3752 8.95341 16.2356 9.4596C16.0943 9.97167 16.1776 10.2139 16.2408 10.3353C16.3042 10.4568 16.4549 10.662 16.954 10.8399C17.4489 11.0163 18.0416 11.0763 18.7358 11.1417C19.385 11.2029 20.1367 11.2702 20.8183 11.5135C21.4943 11.7548 22.3529 12.2615 22.9648 13.437C23.5767 14.6126 23.4993 15.6067 23.309 16.2986C23.1171 16.996 22.7403 17.6493 22.4178 18.2156C22.073 18.8214 21.7815 19.3401 21.6419 19.8463C21.5007 20.3583 21.5839 20.6006 21.6471 20.7219C21.7106 20.8435 21.8613 21.0487 22.3603 21.2266C22.8552 21.4029 23.4481 21.4631 24.1422 21.5284C24.7909 21.5894 25.5415 21.6563 26.2225 21.8988C26.8979 22.1393 27.7572 22.6444 28.3691 23.8197C28.9809 24.9953 28.9015 25.9887 28.7111 26.68C28.5191 27.377 28.1442 28.0318 27.8221 28.5984C27.4776 29.2044 26.3103 29.9994 26.171 30.5061C26.0306 31.018 26.1133 31.2609 26.1773 31.3838C26.2415 31.5067 26.3929 31.7126 26.8915 31.8904C27.3863 32.0668 27.9795 32.1272 28.6734 32.1922C29.3219 32.253 30.0719 32.3185 30.7527 32.5606C31.428 32.8009 32.2873 33.306 32.8993 34.4816C33.5111 35.6571 33.4317 36.6505 33.2413 37.3418C33.0493 38.0387 32.6734 38.6917 32.3513 39.2583C32.0067 39.8644 31.7166 40.3861 31.5774 40.8928C31.4373 41.4034 31.5186 41.6453 31.5826 41.7685C31.6465 41.8913 31.7979 42.0987 32.2979 42.2771C32.7927 42.4535 33.3856 42.5136 34.0797 42.5789C34.7286 42.6399 35.4798 42.7057 36.1612 42.9486C36.837 43.1897 37.6957 43.6966 38.3076 44.8722C38.9194 46.0477 38.8421 47.0419 38.6518 47.7338C38.4599 48.4313 38.083 49.0843 37.7607 49.6508C37.4159 50.2568 37.1251 50.7769 36.9857 51.2834C36.8452 51.7945 37.8032 51.761 37.8671 51.8839C37.8671 51.8839 38.0822 52.2142 38.5824 52.3925C39.0771 52.5689 39.6693 52.6273 40.3632 52.6923C41.0118 52.7531 41.7626 52.8205 42.4435 53.0627C43.1188 53.303 43.9781 53.808 44.5901 54.9837C45.2017 56.159 45.1225 57.1527 44.9322 57.8439C44.7401 58.5408 44.3642 59.1939 44.0421 59.7604C43.6975 60.3665 43.4064 60.8862 43.2672 61.393C43.1266 61.9048 43.2094 62.1476 43.2734 62.2706C43.3373 62.3935 43.4885 62.6008 43.9887 62.7792C44.4835 62.9556 45.0754 63.0138 45.7695 63.079C46.4184 63.14 47.1705 63.2078 47.852 63.4508C48.5278 63.6919 49.3866 64.1989 49.9984 65.3743C50.6097 66.5493 50.5318 67.5422 50.3416 68.2339C50.1497 68.9315 49.7738 69.5864 49.4515 70.1529C49.1068 70.7589 48.8149 71.2771 48.6755 71.7836C48.5347 72.2956 48.6178 72.5384 48.6817 72.6612C48.7457 72.784 48.8967 72.9896 49.396 73.1678C49.8909 73.3442 50.4838 73.4044 51.1778 73.4696C51.8268 73.5306 52.5779 73.5965 53.2593 73.8394C53.9352 74.0804 54.7938 74.5875 55.4058 75.7629L54.2422 76.3686Z" stroke="#F9F7F6" stroke-width="1.90971" stroke-miterlimit="10" mask="url(#path-6-outside-1_2743_791)"/>
</g>
<path d="M7.30371 25.8466C8.4683 27.5833 9.75193 28.9833 11.8697 28.9833C14.4931 28.9833 15.8365 26.8349 17.2592 24.5596L17.2617 24.5555C17.4643 24.2314 17.6681 23.9053 17.8762 23.5844C16.7156 21.9554 15.3929 20.7075 13.3226 20.7075C10.5172 20.7075 9.08438 22.9989 7.56775 25.4251C7.48 25.5655 7.39207 25.7062 7.30371 25.8466Z" fill="#1A3495" fill-opacity="0.16"/>
</g>
<defs>
<clipPath id="clip0_2743_791">
<rect width="32.2368" height="35" fill="white" transform="translate(3.88159 2.5)"/>
</clipPath>
<clipPath id="clip1_2743_791">
<rect width="54.3773" height="70.5262" fill="white" transform="matrix(0.917853 0.396921 0.396921 -0.917853 -21.9518 55.0745)"/>
</clipPath>
<clipPath id="clip2_2743_791">
<rect width="35.447" height="12.578" fill="white" transform="translate(1.31677 18.7306)"/>
</clipPath>
<clipPath id="clip3_2743_791">
<rect width="12.3781" height="45.8718" fill="white" transform="translate(5.38782 1.3679) rotate(-27.4972)"/>
</clipPath>
</defs>
</svg>
