<svg width="40" height="40" viewBox="0 0 40 40" fill="none" xmlns="http://www.w3.org/2000/svg">
<g clip-path="url(#clip0_1178_30176)">
<g clip-path="url(#clip1_1178_30176)">
<g opacity="0.5">
<path d="M5.02563 13.8566V17.3419L2.0061 19.0851L-1.01245 17.3419V13.8566L2.0061 12.1134L5.02563 13.8566Z" fill="#5B6DB1" stroke="#747DC7" stroke-width="0.625"/>
<path d="M7.85889 10.9579L5.32861 13.245L2.37256 11.5458L3.07568 8.20789L6.46533 7.8446L7.85889 10.9579Z" fill="#5B6DB1" stroke="#747DC7" stroke-width="0.625"/>
<path d="M38.5879 13.8564V17.3418L35.5684 19.085L32.5498 17.3418V13.8564L35.5684 12.1133L38.5879 13.8564Z" fill="#5B6DB1" stroke="#747DC7" stroke-width="0.625"/>
<path d="M41.4211 10.9578L38.8909 13.2449L35.9348 11.5457L36.6379 8.20782L40.0276 7.84454L41.4211 10.9578Z" fill="#5B6DB1" stroke="#747DC7" stroke-width="0.625"/>
<path d="M27.4658 11.7529L30.7971 13.6763V17.523L27.4658 19.4464L24.1344 17.523V13.6763L27.4658 11.7529Z" fill="#C4CBDF"/>
<path d="M10.4439 11.7531L13.7753 13.6764V17.5231L10.4439 19.4465L7.11255 17.5231V13.6764L10.4439 11.7531Z" fill="#5B6DB1"/>
<path d="M5.02576 26.6602V23.1748L2.00623 21.4316L-1.01233 23.1748V26.6602L2.00623 28.4033L5.02576 26.6602Z" fill="#5B6DB1" stroke="#747DC7" stroke-width="0.625"/>
<path d="M7.85913 29.5588L5.32886 27.2717L2.3728 28.9709L3.07593 32.3088L6.46558 32.6721L7.85913 29.5588Z" fill="#5B6DB1" stroke="#747DC7" stroke-width="0.625"/>
<path d="M38.5881 26.6603V23.1749L35.5686 21.4318L32.55 23.1749V26.6603L35.5686 28.4034L38.5881 26.6603Z" fill="#5B6DB1" stroke="#747DC7" stroke-width="0.625"/>
<path d="M41.4214 29.5589L38.8911 27.2718L35.9351 28.971L36.6382 32.3089L40.0278 32.6722L41.4214 29.5589Z" fill="#5B6DB1" stroke="#747DC7" stroke-width="0.625"/>
<path d="M27.4659 28.7635L30.7973 26.8402V22.9935L27.4659 21.0701L24.1345 22.9935V26.8402L27.4659 28.7635Z" fill="#C4CBDF"/>
<path d="M10.444 28.7637L13.7754 26.8403V22.9936L10.444 21.0702L7.11267 22.9936V26.8403L10.444 28.7637Z" fill="#5B6DB1"/>
</g>
<path d="M21.5652 13.8567V17.342L18.5457 19.0852L15.5271 17.342V13.8567L18.5457 12.1135L21.5652 13.8567Z" fill="#4361D0" stroke="#1A3495" stroke-width="0.625" stroke-linejoin="round"/>
<path d="M24.1013 11.5664L21.571 13.8535L18.615 12.1543L19.3181 8.81641L22.7078 8.45312L24.1013 11.5664Z" fill="#4361D0" stroke="#1A3495" stroke-width="0.625" stroke-linejoin="round"/>
<path d="M21.5654 26.6604V23.175L18.5459 21.4319L15.5273 23.175V26.6604L18.5459 28.4036L21.5654 26.6604Z" fill="#FFCC66" stroke="#FAA700" stroke-width="0.625"/>
<path d="M23.9636 29.0958L21.4333 26.8087L18.4773 28.5079L19.1804 31.8458L22.5701 32.2091L23.9636 29.0958Z" fill="#FFCC66" stroke="#FAA700" stroke-width="0.625"/>
</g>
</g>
<defs>
<clipPath id="clip0_1178_30176">
<rect width="40" height="40" rx="5" fill="white"/>
</clipPath>
<clipPath id="clip1_1178_30176">
<rect width="32.5" height="25.625" fill="white" transform="translate(3.75 7.5)"/>
</clipPath>
</defs>
</svg>
