<svg width="257" height="128" viewBox="0 0 257 128" fill="none" xmlns="http://www.w3.org/2000/svg">
<rect x="0.375" y="0.375" width="89" height="68.5" rx="1.625" fill="#224C87"/>
<rect x="0.375" y="0.375" width="89" height="68.5" rx="1.625" stroke="#B9CBFF" stroke-width="0.75"/>
<path d="M3.9344 4.94993V5.31783H2.64462V4.94993H3.9344ZM5.66596 4.94993V5.31783H4.37619V4.94993H5.66596ZM7.39752 4.94993V5.31783H6.10775V4.94993H7.39752ZM9.12908 4.94993V5.31783H7.83931V4.94993H9.12908ZM10.8606 4.94993V5.31783H9.57087V4.94993H10.8606Z" fill="#98BEFF"/>
<rect x="2.3634" y="9.54492" width="2.36336" height="4.18168" rx="1.18168" fill="#98BEFF"/>
<rect x="90.125" y="0.375" width="66" height="72.75" rx="1.625" fill="#6892D4"/>
<rect x="90.125" y="0.375" width="66" height="72.75" rx="1.625" stroke="#B9CBFF" stroke-width="0.75"/>
<path d="M93.6844 4.94993V5.31783H92.3946V4.94993H93.6844ZM95.4159 4.94993V5.31783H94.1262V4.94993H95.4159ZM97.1475 4.94993V5.31783H95.8577V4.94993H97.1475ZM98.8791 4.94993V5.31783H97.5893V4.94993H98.8791ZM100.611 4.94993V5.31783H99.3209V4.94993H100.611Z" fill="#98BEFF"/>
<rect x="92.1134" y="9.54492" width="8.61336" height="4.18168" rx="2.09084" fill="#98BEFF"/>
<rect x="90.125" y="73.875" width="66" height="53.5" rx="1.625" fill="#86B0F2"/>
<rect x="90.125" y="73.875" width="66" height="53.5" rx="1.625" stroke="#B9CBFF" stroke-width="0.75"/>
<path d="M93.6844 78.4499V78.8178H92.3946V78.4499H93.6844ZM95.4159 78.4499V78.8178H94.1262V78.4499H95.4159ZM97.1475 78.4499V78.8178H95.8577V78.4499H97.1475ZM98.8791 78.4499V78.8178H97.5893V78.4499H98.8791ZM100.611 78.4499V78.8178H99.3209V78.4499H100.611Z" fill="#98BEFF"/>
<rect x="92.1134" y="83.0449" width="8.61336" height="4.18168" rx="2.09084" fill="#98BEFF"/>
<rect x="156.875" y="0.375" width="47" height="51" rx="1.625" fill="#2C5698"/>
<rect x="156.875" y="0.375" width="47" height="51" rx="1.625" stroke="#B9CBFF" stroke-width="0.75"/>
<path d="M160.434 4.94993V5.31783H159.145V4.94993H160.434ZM162.166 4.94993V5.31783H160.876V4.94993H162.166ZM163.898 4.94993V5.31783H162.608V4.94993H163.898ZM165.629 4.94993V5.31783H164.339V4.94993H165.629ZM167.361 4.94993V5.31783H166.071V4.94993H167.361Z" fill="#98BEFF"/>
<rect x="158.863" y="9.54492" width="2.36336" height="4.18168" rx="1.18168" fill="#98BEFF"/>
<rect x="204.625" y="38.625" width="52" height="29.25" rx="1.625" fill="#9AC4F5"/>
<rect x="204.625" y="38.625" width="52" height="29.25" rx="1.625" stroke="#B9CBFF" stroke-width="0.75"/>
<path d="M208.184 43.1999V43.5678H206.895V43.1999H208.184ZM209.916 43.1999V43.5678H208.626V43.1999H209.916ZM211.648 43.1999V43.5678H210.358V43.1999H211.648ZM213.379 43.1999V43.5678H212.089V43.1999H213.379ZM215.111 43.1999V43.5678H213.821V43.1999H215.111Z" fill="#6798ED"/>
<rect x="206.613" y="47.7949" width="8.61336" height="4.18168" rx="2.09084" fill="#6798ED"/>
<rect x="204.625" y="68.625" width="52" height="27" rx="1.625" fill="#7CA6E8"/>
<rect x="204.625" y="68.625" width="52" height="27" rx="1.625" stroke="#B9CBFF" stroke-width="0.75"/>
<path d="M208.184 73.1999V73.5678H206.895V73.1999H208.184ZM209.916 73.1999V73.5678H208.626V73.1999H209.916ZM211.648 73.1999V73.5678H210.358V73.1999H211.648ZM213.379 73.1999V73.5678H212.089V73.1999H213.379ZM215.111 73.1999V73.5678H213.821V73.1999H215.111Z" fill="#98BEFF"/>
<rect x="206.613" y="77.7949" width="2.36336" height="4.18168" rx="1.18168" fill="#98BEFF"/>
<rect x="156.875" y="52.125" width="47" height="43.5" rx="1.625" fill="#6892D4"/>
<rect x="156.875" y="52.125" width="47" height="43.5" rx="1.625" stroke="#B9CBFF" stroke-width="0.75"/>
<path d="M160.434 56.6999V57.0678H159.145V56.6999H160.434ZM162.166 56.6999V57.0678H160.876V56.6999H162.166ZM163.898 56.6999V57.0678H162.608V56.6999H163.898ZM165.629 56.6999V57.0678H164.339V56.6999H165.629ZM167.361 56.6999V57.0678H166.071V56.6999H167.361Z" fill="#98BEFF"/>
<rect x="158.863" y="61.2949" width="2.36336" height="4.18168" rx="1.18168" fill="#98BEFF"/>
<rect x="156.875" y="96.375" width="99.75" height="31" rx="1.625" fill="#90BAFC"/>
<rect x="156.875" y="96.375" width="99.75" height="31" rx="1.625" stroke="#B9CBFF" stroke-width="0.75"/>
<path d="M160.434 100.95V101.318H159.145V100.95H160.434ZM162.166 100.95V101.318H160.876V100.95H162.166ZM163.898 100.95V101.318H162.608V100.95H163.898ZM165.629 100.95V101.318H164.339V100.95H165.629ZM167.361 100.95V101.318H166.071V100.95H167.361Z" fill="#98BEFF"/>
<rect x="158.863" y="105.545" width="2.36336" height="4.18168" rx="1.18168" fill="#98BEFF"/>
<rect x="204.625" y="0.375" width="52" height="37.5" rx="1.625" fill="#D2E3FE"/>
<rect x="204.625" y="0.375" width="52" height="37.5" rx="1.625" stroke="#B9CBFF" stroke-width="0.75"/>
<path d="M208.184 4.94993V5.31783H206.895V4.94993H208.184ZM209.916 4.94993V5.31783H208.626V4.94993H209.916ZM211.648 4.94993V5.31783H210.358V4.94993H211.648ZM213.379 4.94993V5.31783H212.089V4.94993H213.379ZM215.111 4.94993V5.31783H213.821V4.94993H215.111Z" fill="#98BEFF"/>
<rect x="206.613" y="9.54492" width="2.36336" height="4.18168" rx="1.18168" fill="#98BEFF"/>
<rect x="0.375" y="69.625" width="89" height="57.75" rx="1.625" fill="#C1D8FA"/>
<rect x="0.375" y="69.625" width="89" height="57.75" rx="1.625" stroke="#B9CBFF" stroke-width="0.75"/>
<path d="M3.9344 74.1999V74.5678H2.64462V74.1999H3.9344ZM5.66596 74.1999V74.5678H4.37619V74.1999H5.66596ZM7.39752 74.1999V74.5678H6.10775V74.1999H7.39752ZM9.12908 74.1999V74.5678H7.83931V74.1999H9.12908ZM10.8606 74.1999V74.5678H9.57087V74.1999H10.8606Z" fill="#98BEFF"/>
<rect x="2.36343" y="78.7949" width="2.36336" height="4.18168" rx="1.18168" fill="#98BEFF"/>
</svg>
